<?xml version="1.0" encoding="utf-8"?>

<!DOCTYPE svg PUBLIC "-//W3C//DTD SVG 1.1//EN" "http://www.w3.org/Graphics/SVG/1.1/DTD/svg11.dtd">
<!-- Uploaded to: SVG Repo, www.svgrepo.com, Generator: SVG Repo Mixer Tools -->
<svg height="800px" width="800px" version="1.1" id="_x32_" xmlns="http://www.w3.org/2000/svg" xmlns:xlink="http://www.w3.org/1999/xlink" 
	 viewBox="0 0 512 512"  xml:space="preserve">
<style type="text/css">
	.st0{fill:#0369A1;}
</style>
<g>
	<path class="st0" d="M428.796,406.751c-10.513-17.935-26.788-28.731-42.437-35.936c-15.662-7.193-31.157-11.072-40.481-14.588
		c-6.306-2.339-13.021-5.841-18.445-9.693v-24.71c-0.289-3.213-6.722-3.926-11.085-4.047c0-1.91,0-4.154,0-6.796
		c9.882-11.004,24.085-28.038,29.914-55.061c2.037-0.914,4.054-1.95,5.996-3.308c4.833-3.334,8.934-8.174,12.409-14.762
		c3.502-6.615,6.594-15.072,9.902-26.641c1.674-5.875,2.447-10.963,2.447-15.508c0-0.759-0.067-1.472-0.114-2.205
		c13.901-12.476,24.724-31.561,16.436-59.269C366.61,44.89,335.58,0.907,255.654,0c-79.926,0.907-114.478,41.448-137.683,134.228
		c-6.951,27.79,3.69,46.793,17.128,59.202c-0.04,0.753-0.114,1.492-0.114,2.279c0.007,4.538,0.78,9.633,2.454,15.501
		c4.423,15.408,8.416,25.35,13.585,32.65c2.588,3.63,5.526,6.541,8.726,8.752c1.943,1.358,3.96,2.393,5.996,3.308
		c5.828,27.009,20.025,44.05,29.907,55.054c0,2.642,0,4.887,0,6.803c-4.369,0.121-10.789,0.834-11.078,4.047v24.683
		c-0.854,0.612-1.694,1.237-2.601,1.822c-5.075,3.327-10.856,6.143-15.71,7.844c-6.298,2.232-15.367,4.712-25.289,8.215
		c-14.89,5.277-31.964,12.88-45.637,26.525c-13.706,13.599-23.44,33.53-23.36,60.89c0,3.476,0.155,7.085,0.471,10.809
		c0.202,2.333,1.022,4.262,2.01,5.902c1.889,3.066,4.45,5.445,7.663,7.865c5.62,4.168,13.43,8.268,23.575,12.315
		c30.35,12.059,81.688,23.286,150.307,23.306c55.754-0.007,100.14-7.441,131.069-16.677c15.475-4.632,27.568-9.68,36.252-14.682
		c4.356-2.514,7.858-5.001,10.628-7.703c1.384-1.358,2.594-2.769,3.596-4.424c0.988-1.64,1.808-3.569,2.01-5.895
		c0.309-3.731,0.464-7.321,0.464-10.789C440.037,433.6,435.801,418.676,428.796,406.751z M256.004,492.748
		c-6.325,0-11.455-5.122-11.455-11.454c0-6.332,5.13-11.455,11.455-11.455s11.455,5.123,11.455,11.455
		C267.458,487.626,262.329,492.748,256.004,492.748z M256.004,444.987c-6.325,0-11.455-5.13-11.455-11.455
		s5.13-11.455,11.455-11.455s11.455,5.13,11.455,11.455S262.329,444.987,256.004,444.987z M256.004,397.233
		c-6.325,0-11.455-5.13-11.455-11.455c0-6.325,5.13-11.455,11.455-11.455s11.455,5.13,11.455,11.455
		C267.458,392.103,262.329,397.233,256.004,397.233z M301.204,305.172v2.911c0,13.169,0,16.658,0,23.964
		c-10.426,2.81-23.716,5.223-39.607,5.694v17.921h-11.186v-17.921c-15.898-0.471-29.188-2.884-39.614-5.694
		c0-7.307,0-10.802,0-23.964v-2.911l-1.942-2.158c-10.325-11.502-24.308-26.768-29.154-53.898l-0.766-4.343l-4.14-1.472
		c-2.636-0.942-4.646-1.902-6.4-3.12c-2.588-1.828-4.941-4.322-7.677-9.431c-2.709-5.082-5.579-12.678-8.719-23.702
		c-0.181-0.632-0.309-1.203-0.464-1.802c10.211,5.741,18.628,8.141,18.628,8.141c-2.958-10.151-4.894-18.802-5.721-26.23
		l1.613,0.343v-9.344c0,0,0-4.652,0-11.199c7.234-19.212,34.155-23.198,89.6-24.704c57.434,0,84.256,4.779,90.292,26.358
		c0,5.653,0,9.545,0,9.545v8.43l0.968-0.107c-0.786,7.642-2.742,16.523-5.768,26.909c0,0,8.813-2.508,19.386-8.383
		c-0.168,0.679-0.322,1.331-0.524,2.05c-4.175,14.702-7.919,23.259-11.354,28.005c-1.721,2.4-3.294,3.892-5.042,5.122
		c-1.754,1.217-3.764,2.178-6.399,3.12l-4.148,1.478l-0.759,4.336c-4.847,27.131-18.829,42.397-29.154,53.898L301.204,305.172z"/>
</g>
</svg>