<?xml version="1.0" encoding="utf-8"?>

<!DOCTYPE svg PUBLIC "-//W3C//DTD SVG 1.1//EN" "http://www.w3.org/Graphics/SVG/1.1/DTD/svg11.dtd">
<!-- Uploaded to: SVG Repo, www.svgrepo.com, Generator: SVG Repo Mixer Tools -->
<svg height="800px" width="800px" version="1.1" id="_x32_" xmlns="http://www.w3.org/2000/svg" xmlns:xlink="http://www.w3.org/1999/xlink" 
	 viewBox="0 0 512 512"  xml:space="preserve">
<style type="text/css">
	.st0{fill:#4D7C0F;}
</style>
<g>
	<path class="st0" d="M432.567,404.453c-10.743-18.333-27.366-29.358-43.364-36.715c-5.09-2.336-10.138-4.307-14.995-6.058
		c3.366-3.779,5.262-8.854,4.774-14.295c-0.432-4.788-2.665-8.95-5.914-12.014c2.652-3.599,4.108-8.092,3.675-12.886
		c-0.598-6.581-4.5-12.062-9.912-14.974c3.572-3.812,5.626-9.026,5.117-14.638c-0.577-6.367-4.258-11.698-9.404-14.679
		c3.696-3.641,5.853-8.8,5.351-14.37c-0.652-7.24-5.53-13.044-11.959-15.318c4.245-3.338,7.94-7.844,11.1-13.827
		c3.572-6.76,6.738-15.407,10.118-27.222c1.71-6.003,2.5-11.21,2.5-15.84c0-1.154-0.075-2.266-0.172-3.359
		c1.415-6.107,2.899-13.951,4.465-24.144C394.499,95.534,357.572,0,256.763,0c-100.81,0-137.737,95.534-127.186,164.114
		c1.236,8.036,2.418,14.59,3.558,20.037c-0.522,2.301-0.797,4.794-0.797,7.466c0.007,4.644,0.797,9.85,2.508,15.84
		c4.519,15.744,8.599,25.91,13.882,33.37c2.136,2.995,4.561,5.385,7.123,7.439c-6.745,2.109-11.904,8.085-12.577,15.558
		c-0.501,5.571,1.656,10.73,5.351,14.37c-5.144,2.981-8.826,8.312-9.404,14.679c-0.508,5.612,1.539,10.826,5.118,14.638
		c-5.413,2.912-9.321,8.394-9.912,14.974c-0.432,4.794,1.024,9.287,3.675,12.886c-3.25,3.064-5.481,7.226-5.914,12.014
		c-0.495,5.454,1.415,10.544,4.801,14.322c-14.864,5.371-31.631,13.058-45.163,26.562c-14.007,13.896-23.952,34.27-23.863,62.213
		c0,3.558,0.151,7.239,0.467,11.059c0.213,2.376,1.051,4.348,2.06,6.031c1.931,3.133,4.548,5.557,7.831,8.03
		c5.742,4.266,13.725,8.449,24.083,12.591C133.423,500.515,185.881,511.98,256,512c56.971,0,102.327-7.611,133.931-17.042
		c15.812-4.733,28.17-9.885,37.044-14.995c4.451-2.583,8.03-5.118,10.86-7.872c1.415-1.387,2.652-2.844,3.675-4.52
		c1.009-1.683,1.848-3.654,2.054-6.031c0.323-3.82,0.474-7.487,0.474-11.031C444.052,431.888,439.725,416.638,432.567,404.453z
		 M256.763,153.564c80.827-5.104,85.388,18.504,85.416,41.028h-4.513c-1.916-5.763-5.124-10.956-9.314-15.132
		c-6.972-6.979-16.664-11.313-27.311-11.313c-17.138,0-31.639,11.169-36.687,26.618c-2.652-0.783-5.447-1.216-8.346-1.216
		c-2.899,0-5.701,0.433-8.353,1.216c-5.048-15.448-19.548-26.618-36.693-26.618c-10.64,0-20.333,4.334-27.305,11.313
		c-4.19,4.177-7.398,9.369-9.321,15.132h-2.988C171.374,172.068,175.935,148.46,256.763,153.564z M325.72,206.77
		c-0.007,6.835-2.754,12.955-7.226,17.448c-4.492,4.464-10.619,7.226-17.454,7.226s-12.962-2.762-17.454-7.226
		c-4.471-4.492-7.219-10.613-7.226-17.448c0.007-6.841,2.754-12.975,7.226-17.454c4.493-4.486,10.62-7.226,17.454-7.226
		s12.962,2.741,17.454,7.226C322.966,193.795,325.713,199.929,325.72,206.77z M235.647,206.77
		c-0.007,6.835-2.755,12.955-7.233,17.448c-4.485,4.464-10.613,7.226-17.454,7.226c-6.829,0-12.955-2.762-17.448-7.226
		c-4.472-4.492-7.22-10.613-7.226-17.448c0.007-6.841,2.754-12.975,7.226-17.454c4.492-4.486,10.619-7.226,17.448-7.226
		c6.841,0,12.968,2.741,17.454,7.226C232.893,193.795,235.64,199.915,235.647,206.77z M149.723,203.212
		c-0.742-2.604-1.222-4.877-1.518-6.883c1.552-4.54,2.974-9.85,4.279-14.13c0.11-0.048,0.192-0.123,0.309-0.172
		c1.044-0.398,2.15-0.549,2.776-0.604l4.231,0.9c3.696,10.469,6.004,17.867,7.446,23.128v0.288h0.082
		c2.404,8.847,2.287,11.43,2.143,12.097c1.367-3.6,1.786-7.728,1.896-12.097h1.03c-0.013,0.344-0.048,0.687-0.048,1.03
		c0,21.322,17.289,38.604,38.611,38.617c21.335-0.013,38.617-17.295,38.624-38.617c0-0.288-0.034-0.563-0.034-0.852
		c1.985-0.756,4.148-1.222,6.456-1.222c2.302,0,4.465,0.467,6.45,1.222c0,0.288-0.034,0.563-0.034,0.852
		c0.006,21.322,17.289,38.604,38.617,38.617c10.647,0,20.339-4.34,27.311-11.32c6.979-6.966,11.313-16.664,11.306-27.298
		c0-0.343-0.034-0.686-0.048-1.03h2.548c0.11,4.369,0.529,8.497,1.896,12.097c-0.226-1.079-0.398-7.096,9.919-36.2l2.067-0.22
		c0.488-0.02,2.96,0.226,4.589,1.312c0.274,0.179,0.515,0.399,0.762,0.605c0.865,2.912,1.779,6.202,2.748,9.356
		c-0.104,2.72-0.618,6.161-1.862,10.523c-4.265,15.029-8.091,23.767-11.602,28.616c-1.758,2.446-3.366,3.984-5.152,5.234
		c-1.793,1.243-3.847,2.226-6.539,3.187l-4.231,1.511l-0.784,4.43c-4.952,27.73-19.24,43.323-29.79,55.076l-1.985,2.205v2.974
		c0,14.061,0,17.276,0,25.49c0,1.175,0.123,2.309,0.316,3.428L256,386.587l-46.531-51.243c0.193-1.112,0.337-2.239,0.337-3.407
		c0-8.215,0-11.423,0-25.49v-2.974l-1.985-2.205c-10.551-11.753-24.839-27.345-29.791-55.076l-0.783-4.43l-4.232-1.511
		c-2.693-0.962-4.746-1.944-6.539-3.187c-2.644-1.869-5.042-4.417-7.844-9.644C155.864,222.226,152.931,214.47,149.723,203.212z
		 M261.461,391.038l43.811-48.248c0.501,0.866,1.03,1.71,1.608,2.493c4.121,5.523,9.836,9.61,16.06,13.182
		c3.001,1.696,6.14,3.236,9.3,4.657c-0.57,7.721-4.272,16.671-10.874,23.766c-7.198,7.748-17.419,13.278-30.161,13.285
		C282.521,400.173,272.547,397.563,261.461,391.038z M269.326,413.526l-1.23,5.036c0.509-2.198,1.092-5.097,1.092-5.097
		C269.257,413.492,269.264,413.506,269.326,413.526z M265.061,400.888c-0.941-0.33-1.731-0.598-2.583-0.894l0.102-0.323
		C263.412,400.091,264.236,400.503,265.061,400.888z M325.789,342.007c-2.905-2.033-5.144-4.122-6.443-5.894
		c-1.312-1.82-1.669-3.077-1.682-4.177c0-7.583,0-11.004,0-22.53c6.408-7.136,14.603-16.65,21.308-29.784
		c0.453,0.357,0.927,0.66,1.408,0.968c-4.239,3.854-6.738,9.528-6.189,15.682c0.591,6.581,4.492,12.062,9.912,14.988
		c-3.579,3.806-5.626,9.012-5.118,14.624c0.432,4.794,2.665,8.957,5.908,12.021c-2.528,3.441-3.923,7.707-3.661,12.274
		C335.516,347.742,329.993,344.954,325.789,342.007z M258.205,397.289c-0.597,0.192-1.208,0.384-1.909,0.618
		c-0.866-0.282-1.601-0.522-2.302-0.742c0.666-0.385,1.333-0.804,1.999-1.223C256.735,396.402,257.47,396.862,258.205,397.289z
		 M220.797,400.173c-12.742-0.007-22.963-5.536-30.162-13.285c-6.594-7.074-10.297-16.005-10.866-23.712
		c5.042-2.28,10.138-4.959,14.741-8.153c3.908-2.734,7.487-5.804,10.331-9.527c0.66-0.866,1.271-1.793,1.841-2.754l43.858,48.296
		C239.453,397.563,229.479,400.173,220.797,400.173z M250.113,399.994c-1.697,0.584-3.572,1.251-5.626,1.992
		c1.792-0.769,3.606-1.634,5.433-2.583L250.113,399.994z M244.488,418.562l-1.23-5.036c0.062-0.02,0.069-0.034,0.138-0.061
		C243.395,413.465,243.979,416.364,244.488,418.562z M167.067,311.261c5.419-2.926,9.314-8.408,9.912-14.988
		c0.549-6.154-1.944-11.828-6.189-15.682c0.7-0.446,1.401-0.885,2.034-1.421c6.745,13.353,15.029,23.024,21.514,30.237
		c0,11.512,0,14.947,0,22.53c0,0.934-0.372,2.281-1.82,4.204c-2.123,2.857-6.526,6.319-11.753,9.252
		c-3.428,1.951-7.151,3.634-10.819,5.145c0.358-4.699-1.071-9.102-3.668-12.632c3.242-3.064,5.474-7.227,5.908-12.021
		C172.693,320.273,170.646,315.067,167.067,311.261z M428.164,459.7c-0.329,0.522-1.545,1.889-3.674,3.448
		c-4.032,3.036-11.039,6.855-20.532,10.634c-28.554,11.402-79.522,22.764-147.958,22.75c-55.57,0-99.586-7.459-129.501-16.403
		c-14.94-4.451-26.377-9.314-33.74-13.573c-3.682-2.116-6.327-4.094-7.776-5.522c-0.639-0.618-0.989-1.092-1.154-1.347
		c-0.254-3.187-0.398-6.278-0.398-9.204c0.02-16.294,3.668-28.568,9.335-38.33c8.387-14.424,21.672-23.718,35.918-30.361
		c-0.186,4.884,1.449,9.452,4.409,12.948c-24.708,27.785-9.61,61.54-9.61,61.54l9.788,0.687l6.045-19.865l0.81,20.346l15.366,1.072
		c14.885-19.714,15.957-45.974,5.914-63.194c2.748-2.968,4.63-6.787,5.022-11.128c0.487-5.44-1.408-10.509-4.781-14.287
		c2.741-0.866,5.399-1.704,7.796-2.542c1.113-0.398,2.302-0.872,3.455-1.319c1.244,8.861,5.598,18.066,12.577,25.621
		c8.291,8.971,20.463,15.552,35.32,15.538c5.241,0,10.791-0.852,16.582-2.618c-1.126,0.42-2.143,0.79-3.359,1.251
		c-39.27,9.383-40.458,32.483-32.236,41.036c13.607,14.15,32.758,0.494,44.339-21.707c-6.368,15.538-18.553,56.876-18.553,56.876
		s6.45,2.926,12.9,2.926c2.919-27.504,15.785-65.524,15.826-65.634c0.034,0.11,12.899,38.13,15.819,65.634
		c6.45,0,12.9-2.926,12.9-2.926s-12.186-41.338-18.553-56.876c11.581,22.201,30.732,35.856,44.339,21.707
		c8.222-8.553,7.034-31.652-32.236-41.036c-0.522-0.199-0.941-0.35-1.45-0.543c4.898,1.278,9.61,1.91,14.089,1.91
		c14.858,0.014,27.029-6.567,35.32-15.538c7-7.583,11.362-16.815,12.592-25.704c1.098,0.432,2.218,0.941,3.296,1.346
		c2.247,0.838,4.685,1.663,7.213,2.486c-3.435,3.792-5.378,8.903-4.884,14.398c0.391,4.341,2.273,8.16,5.021,11.128
		c-10.042,17.22-8.97,43.48,5.915,63.194l15.365-1.072l0.811-20.346l6.044,19.865l9.789-0.687c0,0,15.098-33.754-9.61-61.54
		c2.974-3.51,4.616-8.112,4.417-13.023c9.678,4.444,19.075,10.077,26.7,17.674c11.299,11.361,19.281,26.707,19.37,51.119
		C428.563,453.436,428.425,456.506,428.164,459.7z M241.143,414.715c-10.345,19.852-20.724,24.549-22.07,25.127
		c-2.054,0.879-5.31,0.199-6.155-0.296c-3.517-2.054-2.294-4.293-2.047-6.258C210.981,432.416,216.73,416.686,241.143,414.715z
		 M271.441,414.715c24.412,1.971,30.162,17.701,30.272,18.573c0.248,1.965,1.47,4.204-2.047,6.258
		c-0.845,0.495-4.101,1.175-6.154,0.296C292.165,439.264,281.786,434.567,271.441,414.715z"/>
</g>
</svg>