<?xml version="1.0" encoding="utf-8"?>

<!DOCTYPE svg PUBLIC "-//W3C//DTD SVG 1.1//EN" "http://www.w3.org/Graphics/SVG/1.1/DTD/svg11.dtd">
<!-- Uploaded to: SVG Repo, www.svgrepo.com, Generator: SVG Repo Mixer Tools -->
<svg height="800px" width="800px" version="1.1" id="_x32_" xmlns="http://www.w3.org/2000/svg" xmlns:xlink="http://www.w3.org/1999/xlink" 
	 viewBox="0 0 512 512"  xml:space="preserve">
<style type="text/css">
	.st0{fill:#A21CAF;}
</style>
<g>
	<path class="st0" d="M418.461,414.786c-9.172-16.826-23.56-27.136-37.58-34.012c-14.048-6.876-28.083-10.642-37.213-14.076
		c-9.017-3.336-17.85-4.31-23.39-5.83c-2.756-0.693-4.509-1.576-4.862-1.922l-0.07-0.064l-0.029-0.36c0-1.562,0-2.325,0-2.7v-0.31
		c0-0.431,0-1.477,0-3.618c9.596-10.678,23.32-27.256,29.03-53.374c1.922-0.884,3.83-1.88,5.667-3.166
		c4.791-3.307,8.847-8.113,12.253-14.579c3.434-6.494,6.459-14.762,9.681-26.04c1.64-5.731,2.403-10.727,2.403-15.193
		c0.014-2.297-0.269-4.41-0.679-6.444c2.036-1.625,4.438-3.915,6.812-7.18c5.371-7.349,10.176-19.271,10.148-37.036
		c0-8.981-1.188-19.475-4.056-31.771c-7.137-30.563-23.108-55.395-43.106-72.609c-10.67-9.165-22.486-16.126-34.768-20.705
		c0.622-3.272,1.032-6.622,1.032-10.07C309.735,24.047,285.679,0,256,0c-29.68,0-53.72,24.047-53.734,53.727
		c0,3.448,0.438,6.791,1.06,10.062c-12.282,4.579-24.125,11.54-34.782,20.712c-19.998,17.207-35.982,42.046-43.106,72.609
		c-2.869,12.303-4.056,22.79-4.056,31.771c-0.028,17.766,4.763,29.687,10.147,37.036c2.36,3.265,4.763,5.554,6.812,7.18
		c-0.41,2.035-0.706,4.155-0.692,6.444c0,4.466,0.763,9.462,2.402,15.193c4.31,15.024,8.212,24.754,13.314,31.955
		c2.544,3.583,5.456,6.466,8.621,8.664c1.852,1.286,3.746,2.282,5.668,3.166c5.724,26.118,19.447,42.696,29.029,53.374
		c0,2.141,0,3.187,0,3.618v0.31c0,0.375,0,1.138,0,2.7l-0.014,0.289c-0.043,0.071-0.679,0.664-2.233,1.3
		c-2.36,1.004-6.403,1.908-11.01,2.806c-4.607,0.933-9.794,1.922-14.953,3.724c-6.162,2.184-14.529,4.594-23.532,7.971
		c-13.511,5.074-28.704,12.352-40.76,25.263c-12.084,12.875-20.436,31.51-20.366,56.794c0,3.483,0.155,7.109,0.466,10.868
		c0.226,2.522,1.188,4.537,2.262,6.155c2.064,3.031,4.692,5.166,7.928,7.349c5.668,3.745,13.384,7.335,23.235,10.869
		C147.175,502.418,195.779,511.986,256,512c48.929,0,90.24-6.345,119.778-14.338c14.784-4.007,26.599-8.396,35.206-12.819
		c4.311-2.233,7.83-4.445,10.684-6.932c1.428-1.251,2.7-2.586,3.802-4.212c1.074-1.625,2.036-3.632,2.248-6.162
		c0.325-3.753,0.466-7.364,0.466-10.84C428.198,439.837,424.566,425.965,418.461,414.786z M229.261,26.994
		c6.868-6.854,16.267-11.073,26.74-11.08c10.472,0.007,19.872,4.226,26.74,11.08c6.855,6.87,11.08,16.268,11.08,26.734
		c0,1.922-0.183,3.787-0.466,5.617c-5.837-1.158-11.702-1.766-17.554-1.774c-6.699,0-13.328,0.912-19.8,2.565
		c-6.473-1.646-13.102-2.565-19.8-2.565c-5.851,0.007-11.745,0.615-17.582,1.781c-0.283-1.83-0.424-3.71-0.424-5.624
		C218.194,43.261,222.406,33.856,229.261,26.994z M147.67,220.144c-1.103-0.954-2.473-2.346-3.886-4.472
		c-3.081-4.678-6.459-12.72-6.487-26.79c0-7.568,1.004-16.854,3.646-28.153c6.36-27.284,20.536-49.141,37.99-64.164
		c17.44-15.03,38.131-23.101,57.268-23.072c6.048,0,11.956,0.792,17.609,2.41c1.414,0.403,2.968,0.403,4.382,0
		c5.654-1.618,11.561-2.41,17.61-2.41c19.136-0.028,39.827,8.042,57.281,23.072c17.454,15.024,31.616,36.88,37.99,64.164
		c2.629,11.292,3.632,20.585,3.632,28.153c-0.028,15.009-3.844,23.157-7.095,27.68c-1.23,1.689-2.346,2.756-3.293,3.576
		c-2.826-0.488-5.766,0.509-7.603,2.848c-1.272,1.618-1.752,3.59-1.611,5.526l-9.272,11.405l-2.162-22.704l-2.911-1.675
		c-32.831-18.882-52.561-37.877-64.08-51.982c-5.752-7.06-9.441-12.896-11.674-16.896c-1.117-1.993-1.866-3.534-2.318-4.537
		l-0.48-1.096l-0.085-0.226L256,124.11l-6.12,16.692c-0.495,1.187-15.052,38.145-78.623,74.736l-2.926,1.675l-2.162,22.704
		l-9.271-11.405c0.156-1.936-0.326-3.908-1.597-5.526C153.45,220.632,150.511,219.643,147.67,220.144z M321.648,243.556
		c-0.028,12.699-10.303,22.973-22.994,23.002c-12.705-0.028-22.98-10.303-22.994-23.002c0.014-12.692,10.289-22.966,22.994-22.995
		C311.345,220.59,321.62,230.864,321.648,243.556z M298.654,209.848c-16.281,0-29.849,11.532-33.022,26.867h-19.264
		c-3.158-15.335-16.74-26.867-33.022-26.867c-4.636,0-9.052,0.94-13.073,2.629c31.566-21.984,47.996-42.944,55.727-55.445
		c7.73,12.501,24.161,33.461,55.72,55.445C307.699,210.788,303.289,209.848,298.654,209.848z M213.347,220.561
		c12.706,0.029,22.98,10.304,23.008,22.995c-0.028,12.699-10.303,22.973-23.008,23.002c-12.692-0.028-22.967-10.303-22.995-23.002
		C190.38,230.864,200.655,220.59,213.347,220.561z M300.562,396.674c-8.522,8.431-22.387,14.812-44.562,14.84
		c-22.161-0.028-36.025-6.409-44.548-14.84c-6.402-6.345-9.921-14.084-11.278-21.736c2.12-0.848,4.212-1.915,6.219-3.491
		c1.738-1.385,3.378-3.23,4.509-5.504c1.145-2.262,1.71-4.869,1.71-7.42c0-1.562,0-2.325,0-2.7v-0.31c0-0.6,0-2.297,0-6.664
		c0-1.972-0.735-3.866-2.049-5.329c-10.049-11.193-23.546-25.92-28.224-52.158c-0.509-2.826-2.459-5.144-5.173-6.112
		c-2.53-0.904-4.438-1.816-6.078-2.968c-2.445-1.717-4.65-4.056-7.292-8.974c-2.601-4.883-5.384-12.239-8.438-22.938
		c-0.466-1.611-0.707-2.94-0.975-4.297l21.751,26.719l4.536-47.728c3.208-1.886,6.262-3.774,9.229-5.66
		c-6.31,6.12-10.261,14.663-10.261,24.154c0,18.627,15.095,33.708,33.708,33.715c17.299-0.007,31.389-13.066,33.333-29.843h18.648
		c1.951,16.776,16.027,29.836,33.326,29.843c18.627-0.007,33.708-15.088,33.708-33.715c0-9.484-3.936-18.02-10.239-24.14
		c2.968,1.88,6.013,3.766,9.207,5.646l4.551,47.728l21.738-26.719c-0.269,1.364-0.51,2.686-0.976,4.297
		c-4.042,14.281-7.688,22.55-10.953,27.072c-1.639,2.282-3.123,3.689-4.763,4.84c-1.653,1.152-3.561,2.064-6.091,2.968
		c-2.699,0.968-4.664,3.286-5.159,6.112c-4.692,26.238-18.175,40.966-28.224,52.158c-1.329,1.463-2.05,3.357-2.05,5.329
		c0,4.367,0,6.063,0,6.664v0.31c0,0.375,0,1.138,0,2.7c-0.014,2.466,0.495,4.996,1.569,7.25c1.923,4.021,5.3,6.551,8.396,8.049
		c0.82,0.396,1.654,0.693,2.487,1.011C310.512,382.513,306.993,390.3,300.562,396.674z"/>
	<path class="st0" d="M233.02,278.076c-2.502-0.94-5.54-0.176-6.784,1.696l-20.097,30.146c-1.258,1.879-0.24,4.162,2.261,5.102
		c2.502,0.939,5.54,0.176,6.798-1.696l20.098-30.146C236.539,281.291,235.521,279.016,233.02,278.076z"/>
</g>
</svg>